<?xml version="1.0" standalone="no"?>
<!DOCTYPE svg PUBLIC "-//W3C//DTD SVG 20010904//EN"
 "http://www.w3.org/TR/2001/REC-SVG-20010904/DTD/svg10.dtd">
<svg version="1.0" xmlns="http://www.w3.org/2000/svg"
 width="1056.000000pt" height="1056.000000pt" viewBox="0 0 1056.000000 1056.000000"
 preserveAspectRatio="xMidYMid meet">
<metadata>
Created by potrace 1.14, written by Peter Selinger 2001-2017
</metadata>
<g transform="translate(0.000000,1056.000000) scale(0.100000,-0.100000)"
fill="#000000" stroke="none">
<path d="M5067 10303 c-2 -1 -45 -5 -97 -8 -52 -4 -108 -8 -125 -10 -16 -2
-57 -6 -90 -9 -33 -4 -71 -8 -85 -11 -14 -2 -45 -7 -70 -11 -65 -10 -82 -12
-112 -19 -16 -3 -40 -7 -55 -10 -16 -2 -55 -11 -89 -19 -34 -8 -74 -18 -90
-21 -39 -8 -59 -13 -59 -15 0 -2 -14 -5 -53 -14 -12 -3 -26 -7 -30 -10 -5 -3
-19 -7 -33 -10 -27 -6 -193 -62 -224 -75 -17 -8 -49 -21 -65 -26 -3 -1 -18 -7
-33 -13 -16 -7 -30 -12 -31 -12 -2 0 -34 -14 -72 -31 -38 -17 -69 -31 -69 -30
0 1 -47 -24 -105 -54 -57 -30 -108 -55 -112 -55 -5 0 -8 -4 -8 -8 0 -5 -16
-14 -35 -22 -19 -8 -35 -17 -35 -22 0 -4 -5 -8 -12 -8 -6 0 -26 -11 -44 -25
-18 -14 -35 -25 -39 -25 -3 0 -23 -13 -43 -28 -20 -16 -75 -57 -122 -93 -119
-89 -122 -92 -251 -215 -104 -99 -238 -249 -294 -328 -11 -15 -25 -33 -30 -40
-21 -22 -124 -182 -172 -266 -54 -94 -109 -205 -143 -290 -12 -30 -28 -68 -35
-85 -13 -29 -63 -185 -70 -215 -2 -8 -11 -42 -19 -75 -9 -33 -19 -76 -22 -95
-3 -19 -7 -37 -9 -40 -2 -3 -6 -26 -10 -50 -4 -25 -8 -52 -10 -60 -2 -8 -6
-40 -10 -70 -4 -30 -9 -66 -11 -80 -21 -130 -21 -510 1 -695 2 -22 6 -60 9
-85 3 -25 8 -56 11 -70 2 -13 7 -42 11 -64 3 -22 7 -44 10 -47 2 -4 6 -22 8
-40 10 -72 75 -288 116 -384 7 -16 14 -35 15 -40 9 -42 195 -378 237 -430 5
-5 29 -37 54 -70 150 -199 360 -402 589 -570 44 -32 97 -71 117 -87 20 -15 40
-28 44 -28 4 0 31 -18 60 -40 29 -22 56 -40 59 -40 3 0 33 -18 66 -40 33 -22
62 -40 64 -40 2 0 30 -15 62 -34 134 -78 221 -123 458 -240 138 -68 270 -132
295 -143 108 -48 141 -63 235 -103 55 -23 114 -48 130 -55 17 -7 53 -22 80
-33 28 -12 85 -37 128 -56 44 -20 81 -36 83 -36 2 0 43 -18 90 -40 47 -22 88
-40 90 -40 6 0 429 -210 509 -253 33 -18 62 -35 63 -39 2 -5 8 -8 13 -8 5 0
39 -18 75 -40 36 -22 68 -40 69 -40 8 0 190 -124 193 -132 2 -4 8 -8 14 -8 13
0 114 -86 189 -160 66 -65 137 -165 166 -235 22 -51 51 -164 52 -200 6 -174
-6 -268 -51 -405 -61 -187 -188 -332 -370 -421 -43 -20 -78 -36 -78 -34 0 2
-15 -2 -33 -10 -123 -51 -445 -80 -684 -61 -96 7 -116 10 -199 27 -28 5 -64
12 -80 15 -33 6 -60 14 -162 49 -235 81 -416 234 -522 442 -41 79 -102 261
-115 343 -2 8 -6 33 -10 55 -4 22 -8 54 -10 70 -5 54 -16 179 -19 215 l-3 35
-1204 0 -1204 0 1 -80 c2 -108 13 -250 28 -345 11 -65 16 -94 31 -180 3 -19
11 -53 17 -75 5 -22 12 -47 13 -55 2 -8 11 -42 20 -75 9 -33 18 -64 19 -70 2
-5 6 -17 9 -25 18 -42 45 -129 41 -133 -2 -2 2 -10 11 -17 8 -7 15 -21 15 -31
0 -11 4 -27 9 -37 5 -9 16 -33 24 -52 48 -113 119 -260 167 -344 11 -20 29
-52 41 -72 28 -50 173 -264 196 -289 16 -18 37 -45 103 -129 8 -11 78 -83 155
-161 132 -133 184 -181 256 -237 16 -12 42 -33 57 -46 15 -12 45 -35 67 -50
22 -15 45 -32 51 -37 6 -6 55 -39 110 -75 54 -36 101 -68 102 -73 2 -4 8 -5
13 -1 5 3 9 0 9 -5 0 -6 5 -11 11 -11 6 0 24 -9 40 -21 38 -27 339 -180 339
-172 0 3 7 0 15 -7 8 -7 15 -9 15 -4 0 5 4 4 8 -1 15 -21 273 -112 467 -164
94 -25 294 -68 360 -77 11 -1 34 -5 50 -8 54 -9 188 -26 255 -31 36 -3 81 -8
100 -10 197 -23 719 -18 965 9 22 3 67 8 100 11 105 12 149 18 205 29 8 1 40
6 70 10 30 4 71 12 90 16 19 5 49 12 65 14 28 5 181 44 325 82 36 10 68 22 72
28 4 6 8 8 8 4 0 -5 82 19 158 47 7 2 13 4 15 3 1 -1 13 5 27 12 14 8 27 15
30 15 5 0 55 20 110 43 154 64 499 250 508 274 2 4 8 8 13 8 9 0 65 36 79 50
3 3 24 18 48 34 23 16 53 39 67 52 14 13 31 27 39 31 41 23 225 198 330 313
63 70 184 229 206 270 7 14 16 27 20 30 28 20 218 385 245 470 1 3 7 19 14 35
7 17 14 37 16 45 2 8 15 47 29 85 22 63 60 202 71 265 3 14 7 36 10 50 36 180
49 331 49 585 0 190 -12 388 -28 481 -3 16 -8 47 -11 69 -3 22 -10 60 -15 85
-5 25 -11 56 -13 70 -1 14 -5 30 -8 35 -4 6 -10 28 -14 50 -5 22 -9 45 -11 52
-4 20 -34 113 -66 203 -35 97 -136 313 -149 318 -5 2 -9 9 -9 16 0 6 -22 46
-50 88 -27 42 -50 81 -50 87 0 6 -3 11 -7 11 -5 0 -23 23 -42 50 -19 28 -37
50 -40 50 -4 0 -14 13 -24 29 -24 41 -297 333 -297 317 0 -1 -21 17 -47 41
-81 75 -318 253 -369 278 -17 8 -37 21 -44 30 -7 8 -18 15 -25 15 -8 0 -15 4
-17 8 -5 12 -259 162 -275 162 -7 0 -13 4 -13 9 0 8 -536 281 -552 281 -3 0
-27 10 -54 22 -27 12 -52 21 -56 20 -5 -1 -8 3 -8 8 0 6 -9 10 -19 10 -11 0
-22 4 -25 9 -3 5 -17 12 -31 15 -14 4 -49 17 -78 30 -52 24 -181 75 -392 156
-60 23 -126 49 -145 57 -19 8 -44 19 -55 23 -11 4 -47 20 -80 35 -33 15 -64
28 -70 30 -12 2 -32 11 -155 64 -446 195 -755 379 -940 561 -118 116 -188 226
-205 322 -3 17 -8 35 -10 38 -19 31 -23 244 -6 344 20 116 86 281 134 331 7 7
21 25 32 41 35 49 135 141 199 183 33 22 66 45 73 51 7 5 16 10 20 10 4 0 20
7 36 15 38 20 166 62 213 70 122 21 314 26 414 11 84 -12 147 -25 170 -34 27
-10 29 -11 62 -20 34 -9 169 -78 202 -104 45 -35 166 -152 166 -161 0 -4 9
-18 21 -30 11 -12 30 -42 42 -67 12 -25 25 -46 30 -48 4 -2 7 -11 7 -21 0 -9
4 -21 9 -27 9 -9 53 -141 70 -209 9 -35 18 -88 26 -150 13 -95 16 -130 17
-186 l1 -65 1270 0 1269 0 -6 146 c-4 80 -8 163 -11 185 -2 22 -7 65 -10 95
-14 132 -49 312 -84 440 -12 41 -23 82 -25 90 -12 45 -79 226 -110 300 -46
106 -155 314 -167 318 -5 2 -9 8 -9 14 0 9 -117 188 -129 198 -4 3 -18 21 -31
40 -13 19 -29 40 -35 46 -5 6 -30 36 -55 65 -53 64 -227 239 -290 291 -25 21
-52 44 -60 51 -28 26 -175 134 -197 145 -12 7 -28 18 -35 24 -8 7 -25 19 -38
27 -14 8 -54 33 -90 55 -99 60 -292 157 -436 218 -119 51 -323 125 -368 134
-11 2 -41 11 -67 19 -41 14 -63 19 -114 29 -5 1 -16 5 -22 9 -7 5 -13 6 -13 4
0 -3 -17 -1 -37 4 -66 16 -70 17 -109 23 -22 4 -46 8 -54 11 -8 2 -31 6 -50 9
-19 3 -46 8 -60 10 -14 2 -46 7 -71 10 -25 4 -59 9 -74 12 -15 3 -53 7 -84 10
-31 3 -76 7 -101 9 -139 14 -734 28 -743 18z"/>
</g>
</svg>
